<?xml version="1.0" encoding="UTF-8"?>
<svg id="a" xmlns="http://www.w3.org/2000/svg" viewBox="0 0 1014.91 1321.46">
  <defs>
    <style>
      .cls-1 {
        stroke-width: 3px;
      }

      .cls-1, .cls-2 {
        fill: none;
        stroke: #fff;
        stroke-miterlimit: 10;
      }

      .cls-3 {
        fill: #fff;
        font-family: Gotham-Bold, Gotham;
        font-size: 98.8px;
      }

      .cls-2 {
        stroke-width: 5.1px;
      }
    </style>
  </defs>
  <g>
    <circle class="cls-1" cx="507.45" cy="576.33" r="461.22"/>
    <g>
      <line class="cls-2" x1="509.05" y1="414.74" x2="509.68" y2="901.84"/>
      <line class="cls-2" x1="865.49" y1="413.89" x2="865.46" y2="815.65"/>
      <line class="cls-2" x1="862.83" y1="417.44" x2="149.42" y2="416.12"/>
      <line class="cls-2" x1="152.53" y1="816.39" x2="152.17" y2="414.6"/>
      <line class="cls-2" x1="864.28" y1="812.25" x2="150.17" y2="812.88"/>
      <path class="cls-2" d="M276.04,415.43c0,98.04,.37,394.22,.37,394.22"/>
      <line class="cls-2" x1="334.45" y1="416.27" x2="334.2" y2="711.42"/>
      <line class="cls-2" x1="392.96" y1="714.97" x2="392.93" y2="400.55"/>
      <line class="cls-2" x1="450.72" y1="712.24" x2="451.16" y2="418.47"/>
      <line class="cls-2" x1="275.15" y1="515.59" x2="510.44" y2="516.18"/>
      <line class="cls-2" x1="276.47" y1="614.2" x2="508.31" y2="614.11"/>
      <line class="cls-2" x1="277.83" y1="711.79" x2="507.61" y2="712"/>
      <line class="cls-2" x1="371.14" y1="901.79" x2="371.2" y2="813.04"/>
      <line class="cls-2" x1="233.81" y1="903.67" x2="233.18" y2="812.2"/>
      <line class="cls-2" x1="233.81" y1="899.54" x2="788.4" y2="900.15"/>
      <line class="cls-2" x1="784.83" y1="812.03" x2="784.63" y2="903.52"/>
      <line class="cls-2" x1="234.94" y1="856.6" x2="784.87" y2="856.59"/>
      <line class="cls-2" x1="647.63" y1="899.92" x2="646.9" y2="813.23"/>
      <path class="cls-2" d="M810.01,312.6c0,26.49-.17,105.26-.17,105.26"/>
      <line class="cls-2" x1="207.05" y1="312.64" x2="206.81" y2="417.22"/>
      <line class="cls-2" x1="623.85" y1="415.62" x2="623.88" y2="401.89"/>
      <path class="cls-2" d="M391.18,403.82c54.3-19.1,193.01-19.06,234.61,1.33"/>
      <line class="cls-2" x1="788.27" y1="302.39" x2="788.43" y2="402.84"/>
      <line class="cls-2" x1="763.26" y1="389.75" x2="762.8" y2="290.71"/>
      <line class="cls-2" x1="732.94" y1="380.2" x2="733.24" y2="281.13"/>
      <path class="cls-2" d="M209.62,413.54c146.96-93.94,530.04-65.36,603.65,4.27"/>
      <path class="cls-2" d="M205.49,315.85c146.97-93.94,484.28-84.07,606.41-.55"/>
    </g>
  </g>
  <text class="cls-3" transform="translate(332.18 1189.26)"><tspan x="0" y="0">Aarhus</tspan></text>
</svg>