<svg id="a" xmlns="http://www.w3.org/2000/svg" viewBox="0 0 926.44 926.44"><defs><style>.cls-1,.cls-2{fill:#fff;stroke:#f6f4f4;stroke-miterlimit:10;}.cls-1{stroke-width:4px;}.cls-2{stroke-width:5.1px;}</style></defs><circle class="cls-1" cx="463.22" cy="463.22" r="461.22"/><line class="cls-2" x1="464.82" y1="301.63" x2="465.45" y2="788.73"/><line class="cls-2" x1="821.26" y1="300.78" x2="821.23" y2="702.54"/><line class="cls-2" x1="818.6" y1="304.33" x2="105.19" y2="303.01"/><line class="cls-2" x1="108.3" y1="703.28" x2="107.94" y2="301.49"/><line class="cls-2" x1="820.05" y1="699.14" x2="105.94" y2="699.77"/><path class="cls-2" d="M231.81,302.32c0,98,.37,394.22.37,394.22"/><line class="cls-2" x1="290.22" y1="303.16" x2="289.97" y2="598.31"/><line class="cls-2" x1="348.73" y1="601.86" x2="348.7" y2="287.44"/><line class="cls-2" x1="406.49" y1="599.13" x2="406.93" y2="305.36"/><line class="cls-2" x1="230.92" y1="402.48" x2="466.21" y2="403.07"/><line class="cls-2" x1="232.24" y1="501.09" x2="464.08" y2="501"/><line class="cls-2" x1="233.6" y1="598.68" x2="463.38" y2="598.89"/><line class="cls-2" x1="326.91" y1="788.68" x2="326.97" y2="699.93"/><line class="cls-2" x1="189.58" y1="790.56" x2="188.95" y2="699.09"/><line class="cls-2" x1="189.58" y1="786.43" x2="744.17" y2="787.04"/><line class="cls-2" x1="740.6" y1="698.92" x2="740.4" y2="790.41"/><line class="cls-2" x1="190.71" y1="743.49" x2="740.64" y2="743.48"/><line class="cls-2" x1="603.4" y1="786.81" x2="602.67" y2="700.12"/><path class="cls-2" d="M765.78,199.49c0,26.49-.17,105.26-.17,105.26"/><line class="cls-2" x1="162.82" y1="199.53" x2="162.58" y2="304.11"/><line class="cls-2" x1="579.62" y1="302.51" x2="579.65" y2="288.78"/><path class="cls-2" d="M347,290.71c54.3-19.1,193-19.06,234.61,1.33"/><line class="cls-2" x1="744.04" y1="189.28" x2="744.2" y2="289.73"/><line class="cls-2" x1="719.03" y1="276.64" x2="718.57" y2="177.6"/><line class="cls-2" x1="688.71" y1="267.09" x2="689.01" y2="168.02"/><path class="cls-2" d="M165.39,300.43c147-93.94,530-65.36,603.65,4.27"/><path class="cls-2" d="M161.26,202.74c147-93.94,484.28-84.07,606.41-.55"/></svg>