<?xml version="1.0" encoding="UTF-8"?>
<svg id="a" xmlns="http://www.w3.org/2000/svg" viewBox="0 0 1014.91 1321.46">
  <defs>
    <style>
      .cls-1 {
        fill: none;
        stroke: #fff;
        stroke-miterlimit: 10;
        stroke-width: 3px;
      }

      .cls-2 {
        font-family: Gotham-Bold, Gotham;
        font-size: 98.8px;
      }

      .cls-2, .cls-3 {
        fill: #fff;
      }

      .cls-4 {
        letter-spacing: -.02em;
      }
    </style>
  </defs>
  <g>
    <circle class="cls-1" cx="506.31" cy="576.33" r="461.22"/>
    <g>
      <path class="cls-3" d="M672.95,846.75c13.8,4.62,28.25,6.95,42.79,6.89v1.12l.19-1.14c74.33-.34,134.58-61.03,134.3-135.26-.01-51.33-29.43-98.13-75.69-120.37l-1.14-.54,.15-.22-176.92-97.36c-20.23,11.57-42.68,18.73-65.89,20.99l133.26,73.22-2.1,.92c-68.32,29.53-99.83,108.8-70.45,177.18,15.56-7.53,30.01-17.17,42.96-28.62-13.58-44.73,11.67-92.01,56.4-105.59,7.84-2.38,15.97-3.6,24.16-3.65,46.75,.12,84.55,38.11,84.43,84.86-.11,42.81-32.15,78.78-74.64,83.83-15.56,16.49-32.95,31.17-51.83,43.74"/>
      <path class="cls-3" d="M206.36,617.39c-28.08,25.66-44.04,61.96-43.98,100,.33,74.34,61.02,134.61,135.3,134.34v1.12l.11-1.12c21.48-.06,42.62-5.3,61.67-15.24,5.27-2.78,10.39-5.86,15.31-9.24l173.97-105.79v-4.47c.25-21.35,4.63-42.45,12.89-62.15l-130.69,79.29,.27-2.3c.62-5.11,.92-10.28,.91-15.43-.04-68.79-52.03-126.44-120.46-133.54-.25,3.45-.39,7.04-.42,11.04-.19,13.43,1.03,26.86,3.63,40.05,45.73,9.71,74.93,54.64,65.22,100.37-4.33,20.4-16.03,38.48-32.87,50.77l-12.35,7.56c-11.56,5.82-24.32,8.83-37.25,8.79-46.71,.16-84.74-37.52-85.01-84.23-.06-11.04,2.07-22,6.25-32.21-6.75-21.98-10.94-44.67-12.5-67.61"/>
      <path class="cls-3" d="M380.67,573.13c19.7,11.61,36.83,27.11,50.35,45.55l-.52-158.56,1.84,1.41c23.06,18.03,51.38,28,80.64,28.4h2.32c41.14-.12,79.93-19.17,105.2-51.63-13.92-10.05-29.11-18.21-45.18-24.24-15.77,16.35-37.5,25.6-60.21,25.66h-1.49c-45.54-.48-82.48-37.03-83.43-82.56v-4.64c1.25-45.65,38.57-82.02,84.23-82.08h1.38c26.94,.41,52.08,13.6,67.71,35.54,22.21,5.84,43.66,14.26,63.92,25.08-11.4-63.59-66.36-110.12-130.97-110.88h-2.18c-71.16,.36-129.79,55.94-133.99,126.96l-.06,1.21h-.28v4.24c-.01,.24-.01,.48,0,.73v2.9l.7,216.92h0Z"/>
      <path class="cls-3" d="M294.12,767.97c.64,.06,1.29,.08,1.93,.07h.19c17.51,.05,33.83-8.81,43.35-23.51-78.36-88.05-74.53-221.91,8.72-305.34l-.16-64.76c-70.79,50.5-113.31,131.66-114.55,218.6-1.09,63.65,20.36,125.65,60.57,175.01"/>
      <path class="cls-3" d="M720.06,532.71l57.03,31.34c-16.25-135.74-130.53-238.46-267.23-240.22-12.44-.1-24.88,.58-37.24,2.01-5.9,8.42-9.13,18.4-9.29,28.68-.11,7.69,1.55,15.31,4.84,22.27,13.57-2.39,27.34-3.47,41.11-3.24,97.44,1.44,182.72,65.83,210.78,159.15"/>
      <path class="cls-3" d="M402.38,848.8c31.85,13.11,65.91,20.02,100.36,20.37h4.59c111.98-.48,212.33-69.29,253.15-173.57-8.44-16.11-24.79-26.52-42.95-27.35-30.66,90.17-115.16,150.95-210.4,151.35h-3.78c-14.96-.22-29.85-1.95-44.46-5.16l-56.52,34.35Z"/>
    </g>
  </g>
  <text class="cls-2" transform="translate(19.38 1189.26)"><tspan x="0" y="0">Københ</tspan><tspan class="cls-4" x="388.08" y="0">a</tspan><tspan x="444.6" y="0">vn, Aarhus</tspan></text>
</svg>