<?xml version="1.0" encoding="utf-8"?>
<!-- Generator: Adobe Illustrator 26.2.1, SVG Export Plug-In . SVG Version: 6.00 Build 0)  -->
<svg version="1.1" id="a" xmlns="http://www.w3.org/2000/svg" xmlns:xlink="http://www.w3.org/1999/xlink" x="0px" y="0px"
	 viewBox="0 0 1014.9 1321.5" style="enable-background:new 0 0 1014.9 1321.5;" xml:space="preserve">
<style type="text/css">
	.st0{fill:none;stroke:#FFFFFF;stroke-width:3;stroke-miterlimit:10;}
	.st1{fill:none;stroke:#FFFFFF;stroke-width:6.99;stroke-miterlimit:10;}
	.st2{fill:#6B9299;stroke:#FFFFFF;stroke-width:6.99;stroke-miterlimit:10;}
	.st3{fill:#6B9299;stroke:#FFFFFF;stroke-width:7;stroke-miterlimit:10;}
	.st4{fill:#FFFFFF;stroke:#FFFFFF;stroke-miterlimit:10;}
	.st5{fill:#FFFFFF;}
	.st6{font-family:'Gotham-Bold';}
	.st7{font-size:98.8px;}
	.st8{letter-spacing:-1;}
</style>
<g>
	<g>
		<circle class="st0" cx="518.7" cy="603.6" r="461.2"/>
		<line class="st1" x1="295.5" y1="871.2" x2="297" y2="952.8"/>
		<line class="st1" x1="690.3" y1="766" x2="695.3" y2="994.7"/>
		<path class="st2" d="M641,780.7l1.6,75.1"/>
		<path class="st2" d="M590.2,701.8c0,0,1.8,123.1,2.8,165.7"/>
		<path class="st3" d="M540.6,704.6c0,0,2.8,130.7,3.8,179.1"/>
		<line class="st1" x1="491.1" y1="743.5" x2="494.5" y2="897"/>
		<path class="st2" d="M442.2,742.3l3.2,169"/>
		<line class="st1" x1="389.5" y1="637.1" x2="395.7" y2="925.6"/>
		<line class="st1" x1="493.8" y1="743" x2="439.5" y2="744"/>
		<line class="st1" x1="590.3" y1="704.8" x2="537.9" y2="706.7"/>
		<line class="st1" x1="743.9" y1="828.6" x2="298.1" y2="949.4"/>
		<path class="st2" d="M739.5,750.1c0.6,27.4,1.2,54.5,2.3,81.5"/>
		<line class="st1" x1="639.8" y1="734" x2="741.7" y2="753"/>
		<line class="st1" x1="293.5" y1="874.1" x2="739.3" y2="753.5"/>
		<line class="st1" x1="348.6" y1="1002.7" x2="345.5" y2="860.9"/>
		<line class="st1" x1="636.6" y1="567.4" x2="641.4" y2="779.7"/>
		<line class="st1" x1="347" y1="971" x2="295.4" y2="950.1"/>
		<line class="st1" x1="689.4" y1="631.8" x2="344.9" y2="725.9"/>
		<line class="st1" x1="393" y1="748.2" x2="340.6" y2="726.3"/>
		<line class="st1" x1="684.4" y1="555.9" x2="338.9" y2="650"/>
		<line class="st1" x1="440.8" y1="697.9" x2="435.8" y2="449.6"/>
		<line class="st1" x1="489.3" y1="684.1" x2="486.9" y2="541.2"/>
		<line class="st1" x1="539.7" y1="672.6" x2="536.7" y2="540.3"/>
		<line class="st1" x1="484.3" y1="544.3" x2="539.5" y2="543.2"/>
		<path class="st2" d="M342.4,729.1c0,0-1.1-62.3-1.6-82.2"/>
		<path class="st2" d="M687.4,634.9c0,0-1.4-62.3-1.8-82.9"/>
		<line class="st1" x1="584.5" y1="537.4" x2="687.8" y2="555"/>
		<line class="st1" x1="589.2" y1="657" x2="583.3" y2="407.9"/>
		<line class="st1" x1="439.4" y1="561.7" x2="385.5" y2="538.5"/>
		<path class="st2" d="M385,461.2c0.4,19.6,2.3,80,2.3,80"/>
		<line class="st1" x1="386.1" y1="538.7" x2="637.4" y2="471.8"/>
		<path class="st2" d="M634,391.5c0.5,20.5,0.6,62.7,1.1,83.4"/>
		<line class="st1" x1="382.9" y1="464.2" x2="632" y2="395.7"/>
		<line class="st1" x1="520.5" y1="374.7" x2="636.6" y2="394.5"/>
		<line class="st1" x1="498.3" y1="334.8" x2="486.7" y2="513"/>
		<line class="st1" x1="516.9" y1="333.9" x2="535.4" y2="500.7"/>
		<line class="st1" x1="527" y1="317.7" x2="488.3" y2="318.5"/>
		<line class="st1" x1="527.4" y1="334.5" x2="488.8" y2="335.1"/>
		<line class="st1" x1="524.7" y1="337.6" x2="524.2" y2="314.8"/>
		<line class="st1" x1="491.5" y1="338.1" x2="491" y2="315.5"/>
		<line class="st1" x1="507" y1="319.1" x2="506.1" y2="289"/>
		<line class="st1" x1="505.7" y1="266.5" x2="504.5" y2="201.7"/>
		<line class="st1" x1="505.9" y1="242.2" x2="559.8" y2="240.5"/>
		<line class="st1" x1="541" y1="220.2" x2="562.1" y2="241"/>
		<line class="st1" x1="561.4" y1="203.6" x2="540.8" y2="224.4"/>
		<polygon class="st4" points="568.5,242.9 561,236.3 545.8,243.6 		"/>
		<polygon class="st4" points="568.1,200.7 559.5,200.8 559.6,209.2 		"/>
		<line class="st1" x1="503.9" y1="204.7" x2="561.3" y2="203.4"/>
		
			<ellipse transform="matrix(0.9998 -2.191047e-02 2.191047e-02 0.9998 -5.9916 11.1545)" class="st1" cx="506" cy="279" rx="10.9" ry="10.9"/>
	</g>
	<text transform="matrix(1 0 0 1 235.9849 1216.5204)" class="st5 st6 st7">Københ</text>
	<text transform="matrix(1 0 0 1 624.0649 1216.5204)" class="st5 st6 st7 st8">a</text>
	<text transform="matrix(1 0 0 1 680.585 1216.5204)" class="st5 st6 st7">vn</text>
</g>
</svg>
