<?xml version="1.0" encoding="UTF-8"?>
<svg id="a" xmlns="http://www.w3.org/2000/svg" viewBox="0 0 1014.91 1321.46">
  <defs>
    <style>
      .cls-1 {
        stroke-width: 3px;
      }

      .cls-1, .cls-2 {
        fill: none;
        stroke: #fff;
        stroke-miterlimit: 10;
      }

      .cls-3 {
        fill: #fff;
        font-family: Gotham-Bold, Gotham;
        font-size: 98.8px;
      }

      .cls-2 {
        stroke-width: 5px;
      }
    </style>
  </defs>
  <g>
    <circle class="cls-1" cx="507.45" cy="576.33" r="461.22"/>
    <g>
      <line class="cls-2" x1="921.18" y1="654.91" x2="93.72" y2="654.91"/>
      <line class="cls-2" x1="921.18" y1="629.63" x2="93.72" y2="629.63"/>
      <line class="cls-2" x1="301.95" y1="656.69" x2="301.46" y2="777.09"/>
      <line class="cls-2" x1="333.61" y1="656.69" x2="333.12" y2="777.09"/>
      <line class="cls-2" x1="678.37" y1="656.69" x2="677.89" y2="777.09"/>
      <line class="cls-2" x1="678.37" y1="656.69" x2="677.89" y2="777.09"/>
      <line class="cls-2" x1="710.03" y1="656.69" x2="709.54" y2="777.09"/>
      <line class="cls-2" x1="693.45" y1="375.56" x2="693.9" y2="629.63"/>
      <line class="cls-2" x1="317.59" y1="375.61" x2="317.46" y2="628.46"/>
      <line class="cls-2" x1="381.75" y1="506.99" x2="381.78" y2="627.41"/>
      <line class="cls-2" x1="446.92" y1="559.83" x2="446.53" y2="629.05"/>
      <line class="cls-2" x1="565.09" y1="630.74" x2="564.25" y2="559.1"/>
      <line class="cls-2" x1="629.11" y1="629.64" x2="629.68" y2="502.04"/>
      <line class="cls-2" x1="252.53" y1="507.67" x2="252.68" y2="627.49"/>
      <line class="cls-2" x1="188.14" y1="559.83" x2="187.73" y2="627.67"/>
      <line class="cls-2" x1="823.31" y1="560.44" x2="822.97" y2="629.67"/>
      <line class="cls-2" x1="758.49" y1="629.54" x2="758.06" y2="506.12"/>
      <path class="cls-2" d="M881.53,571.8c-24.19-.29-128.53-5.69-188.04-195.48"/>
      <path class="cls-2" d="M317.61,376.39c35.18,179.29,259.83,333.42,375.59,.16"/>
      <path class="cls-2" d="M129.11,573.16c101.65,.1,169.23-120.2,188.47-196.91"/>
    </g>
  </g>
  <text class="cls-3" transform="translate(340.68 1189.26)"><tspan x="0" y="0">Malmö</tspan></text>
</svg>