<svg id="a" xmlns="http://www.w3.org/2000/svg" viewBox="0 0 926.44 967.94"><defs><style>.cls-1{fill:none;stroke:#f6f4f4;stroke-miterlimit:10;stroke-width:4px;}</style></defs><circle class="cls-1" cx="463.22" cy="463.22" r="461.22"/><line class="cls-1" x1="876.95" y1="541.8" x2="49.49" y2="541.8"/><line class="cls-1" x1="876.95" y1="516.52" x2="49.49" y2="516.52"/><line class="cls-1" x1="257.72" y1="543.58" x2="257.23" y2="663.98"/><line class="cls-1" x1="289.38" y1="543.58" x2="288.89" y2="663.98"/><line class="cls-1" x1="634.14" y1="543.58" x2="633.66" y2="663.98"/><line class="cls-1" x1="634.14" y1="543.58" x2="633.66" y2="663.98"/><line class="cls-1" x1="665.8" y1="543.58" x2="665.31" y2="663.98"/><line class="cls-1" x1="649.22" y1="262.45" x2="649.67" y2="516.52"/><line class="cls-1" x1="273.36" y1="262.5" x2="273.23" y2="515.35"/><line class="cls-1" x1="337.52" y1="393.88" x2="337.55" y2="514.3"/><line class="cls-1" x1="402.69" y1="446.72" x2="402.3" y2="515.94"/><line class="cls-1" x1="520.86" y1="517.63" x2="520.02" y2="445.99"/><line class="cls-1" x1="584.88" y1="516.53" x2="585.45" y2="388.93"/><line class="cls-1" x1="208.3" y1="394.56" x2="208.45" y2="514.38"/><line class="cls-1" x1="143.91" y1="446.72" x2="143.5" y2="514.56"/><line class="cls-1" x1="779.08" y1="447.33" x2="778.74" y2="516.56"/><line class="cls-1" x1="714.26" y1="516.43" x2="713.83" y2="393.01"/><path class="cls-1" d="M837.3,458.69c-24.19-.29-128.53-5.69-188-195.48"/><path class="cls-1" d="M273.38,263.28c35.18,179.29,259.83,333.42,375.59.16"/><path class="cls-1" d="M84.88,460.05c101.65.1,169.23-120.2,188.47-196.91"/><text/></svg>