<svg id="a" xmlns="http://www.w3.org/2000/svg" viewBox="0 0 927.44 1088.04"><defs><style>.cls-1,.cls-2,.cls-3,.cls-4{fill:#fff;stroke:#f6f4f4;stroke-miterlimit:10;}.cls-1{stroke-width:5px;}.cls-2{stroke-width:6.98px;}.cls-3{stroke-width:7.97px;}.cls-4{stroke-width:6.97px;}.cls-5,.cls-6{isolation:isolate;}.cls-6{font-size:98.8px;fill:#f6f4f4;font-family:Gotham-Light, Gotham Light;font-weight:300;}</style></defs><circle class="cls-1" cx="463.72" cy="463.72" r="461.22"/><line class="cls-2" x1="698.14" y1="838.98" x2="698.09" y2="648.72"/><line class="cls-3" x1="564.79" y1="555.19" x2="699.5" y2="652.34"/><line class="cls-2" x1="566.5" y1="454.37" x2="566.18" y2="559.01"/><line class="cls-2" x1="533.27" y1="428.4" x2="567.65" y2="457.44"/><line class="cls-2" x1="534.4" y1="278.61" x2="534.66" y2="431.65"/><line class="cls-3" x1="384.45" y1="282.13" x2="546.72" y2="282.13"/><line class="cls-4" x1="397.28" y1="431.53" x2="397.3" y2="283.81"/><line class="cls-4" x1="365.13" y1="457.83" x2="398.86" y2="428.57"/><line class="cls-4" x1="365.28" y1="558.95" x2="366.25" y2="455.15"/><line class="cls-4" x1="232.16" y1="653.2" x2="366.95" y2="555.76"/><line class="cls-4" x1="233.62" y1="838.54" x2="233.7" y2="649.97"/><path class="cls-4" d="M534.65,839.15s-.71-205.64-.71-274.19"/><line class="cls-2" x1="397.3" y1="838.54" x2="397.12" y2="574.98"/><path class="cls-2" d="M467.74,465.05c-36.88,15.39-67.85,48.77-70.7,111"/><path class="cls-2" d="M534,565.72c-1.84-33.09-17.63-76.1-69-100.3"/><path class="cls-2" d="M468.21,722.58c-18.52,8.81-35.82,25.78-37.18,61"/><path class="cls-2" d="M501,780.47c-1.13-19.19-10-43.69-36.39-58"/><line class="cls-2" x1="537.46" y1="775.57" x2="699.77" y2="775.07"/><line class="cls-2" x1="397.28" y1="689.39" x2="534.65" y2="688.96"/><line class="cls-2" x1="236.97" y1="775.6" x2="394.8" y2="775.11"/><line class="cls-2" x1="503.93" y1="251.51" x2="539.65" y2="281.7"/><line class="cls-2" x1="391.66" y1="281.45" x2="430.23" y2="251.48"/><line class="cls-2" x1="447.45" y1="220.54" x2="429.17" y2="252.8"/><line class="cls-2" x1="483.87" y1="220.03" x2="504.71" y2="252.4"/><path class="cls-2" d="M446.65,178c0,11.75-.37,47.84-.37,47.84"/><line class="cls-2" x1="489.27" y1="222.02" x2="442.29" y2="221.9"/><path class="cls-2" d="M485.33,224.77c0-12-.17-35.12-.17-47.48"/><line class="cls-2" x1="464.37" y1="106.85" x2="446.57" y2="179.11"/><line class="cls-2" x1="485.23" y1="178.55" x2="467.23" y2="106.93"/><line class="cls-2" x1="444.8" y1="179.66" x2="486.77" y2="179.63"/><ellipse class="cls-2" cx="465.96" cy="96.31" rx="9.66" ry="9.93"/><line class="cls-2" x1="465.69" y1="31.36" x2="465.71" y2="88.72"/><line class="cls-2" x1="445.59" y1="46.87" x2="486.16" y2="46.81"/><path class="cls-2" d="M631.7,776.66s0-68.26,0-91.21"/><path class="cls-2" d="M631.69,685.61c.07-11.5-6.23-24.34-19-30"/><path class="cls-2" d="M595.9,775.54s0-67.42,0-90.09"/><path class="cls-2" d="M595.91,685.61c1.35-15.93,7.48-23.54,19.9-29.89"/><path class="cls-2" d="M328.41,778.29s0-70.3,0-93.95"/><path class="cls-2" d="M328.4,684.49c.07-11.5-6.23-24.34-19-30"/><path class="cls-2" d="M292.6,778.29s0-70.3,0-93.95"/><path class="cls-2" d="M292.62,684.49c1.35-15.93,7.48-23.54,19.9-29.89"/><line class="cls-4" x1="430.68" y1="688.6" x2="430.95" y2="604.13"/><line class="cls-4" x1="501.4" y1="689.96" x2="501.13" y2="604.82"/><path class="cls-4" d="M468.09,545c-22.83,9.62-36.32,32-37,59.5"/><path class="cls-4" d="M465.17,545.33c4.33.66,35.9,19.33,36,60.51"/><line class="cls-4" x1="431.26" y1="838.8" x2="431.18" y2="780.04"/><line class="cls-4" x1="501.16" y1="839.15" x2="501.09" y2="780.39"/><line class="cls-2" x1="424.09" y1="357.69" x2="424.3" y2="332.79"/><line class="cls-2" x1="455.5" y1="357.69" x2="455.37" y2="334.46"/><path class="cls-2" d="M455.37,334.54c-.2-19.37-30.78-18.44-31.06-.81"/><line class="cls-2" x1="476.13" y1="358.25" x2="476.34" y2="333.35"/><line class="cls-2" x1="507.54" y1="358.25" x2="507.41" y2="335.02"/><path class="cls-2" d="M507.41,335.1c-.2-19.37-30.78-18.44-31.06-.81"/><g class="cls-5"><text class="cls-6" transform="translate(276.48 1071.83)">Odense</text></g></svg>