<?xml version="1.0" encoding="UTF-8"?><svg id="a" xmlns="http://www.w3.org/2000/svg" viewBox="0 0 595.28 556"><defs><style>.b{fill:none;stroke:#000;stroke-miterlimit:10;stroke-width:5.1px;}</style></defs><line class="b" x1="300.41" y1="153.59" x2="300.87" y2="507.59"/><line class="b" x1="559.45" y1="152.97" x2="559.43" y2="444.95"/><line class="b" x1="557.52" y1="155.54" x2="39.05" y2="154.59"/><line class="b" x1="41.31" y1="445.48" x2="41.05" y2="153.48"/><line class="b" x1="558.57" y1="442.48" x2="39.59" y2="442.94"/><path class="b" d="M131.07,154.09c0,71.25,.27,286.5,.27,286.5"/><line class="b" x1="173.52" y1="154.7" x2="173.34" y2="369.19"/><line class="b" x1="216.04" y1="371.78" x2="216.02" y2="143.28"/><line class="b" x1="258.02" y1="369.79" x2="258.34" y2="156.3"/><line class="b" x1="130.42" y1="226.88" x2="301.42" y2="227.31"/><line class="b" x1="131.38" y1="298.54" x2="299.87" y2="298.48"/><line class="b" x1="132.37" y1="369.47" x2="299.36" y2="369.62"/><line class="b" x1="200.18" y1="507.54" x2="200.23" y2="443.05"/><line class="b" x1="100.38" y1="508.92" x2="99.92" y2="442.44"/><line class="b" x1="100.38" y1="505.92" x2="503.43" y2="506.36"/><line class="b" x1="500.83" y1="442.31" x2="500.69" y2="508.81"/><line class="b" x1="101.2" y1="474.7" x2="500.86" y2="474.7"/><line class="b" x1="401.12" y1="506.19" x2="400.59" y2="443.19"/><path class="b" d="M519.13,79.35c0,19.25-.12,76.5-.12,76.5"/><line class="b" x1="80.93" y1="79.39" x2="80.76" y2="155.39"/><line class="b" x1="383.84" y1="154.23" x2="383.86" y2="144.24"/><path class="b" d="M214.75,145.65c39.46-13.88,140.27-13.85,170.5,.97"/><line class="b" x1="503.33" y1="71.94" x2="503.45" y2="144.93"/><line class="b" x1="485.16" y1="135.43" x2="484.82" y2="63.44"/><line class="b" x1="463.12" y1="128.49" x2="463.34" y2="56.49"/><path class="b" d="M82.8,152.72c106.8-68.27,385.21-47.5,438.7,3.1"/><path class="b" d="M79.8,81.72c106.8-68.27,351.94-61.1,440.7-.4"/></svg>