<?xml version="1.0" encoding="UTF-8"?><svg xmlns="http://www.w3.org/2000/svg" viewBox="0 0 595.28 841.89"><defs><style>.c{stroke-width:49px;}.c,.d,.e,.f{fill:#d4e4e4;stroke:#d4e4e4;stroke-miterlimit:10;}.d{stroke-width:48px;}.e{stroke-width:47px;}.f{stroke-width:47.01px;}</style></defs><g id="a"/><g id="b"><line class="e" x1="69.99" y1="596.07" x2="253.48" y2="815.87"/><line class="c" x1="501.48" y1="806.63" x2="235.48" y2="806.63"/><line class="f" x1="478.05" y1="448.29" x2="478.05" y2="803.29"/><line class="d" x1="75.64" y1="519.87" x2="76.05" y2="610.83"/><line class="d" x1="478.57" y1="408.98" x2="477.89" y2="169.03"/><line class="d" x1="316.57" y1="349.93" x2="316.57" y2="133.93"/><line class="d" x1="235.48" y1="645.93" x2="235.48" y2="359.02"/><line class="d" x1="396.48" y1="645.71" x2="396.48" y2="317.71"/><line class="d" x1="75.64" y1="481.71" x2="75.64" y2="185.47"/><line class="d" x1="156.64" y1="567.06" x2="156.74" y2="440.87"/><line class="d" x1="317.54" y1="594.57" x2="317.59" y2="480.21"/><line class="d" x1="317.54" y1="594.57" x2="317.59" y2="480.21"/><line class="d" x1="235.45" y1="321.07" x2="235.48" y2="185.47"/><line class="d" x1="397.21" y1="188.07" x2="396.47" y2="12.66"/><line class="d" x1="155.92" y1="256.73" x2="156.64" y2="92.37"/><line class="d" x1="156.47" y1="403.25" x2="156.92" y2="295.01"/><line class="d" x1="317.55" y1="440.87" x2="317.59" y2="384.82"/><line class="d" x1="396.45" y1="281.33" x2="396.5" y2="225.28"/></g></svg>