<?xml version="1.0" encoding="UTF-8"?><svg xmlns="http://www.w3.org/2000/svg" viewBox="0 0 530 932"><defs><style>.c,.d,.e{stroke:#000;stroke-miterlimit:10;}.d{stroke-width:6.99px;}.d,.e{fill:none;}.e{stroke-width:7px;}</style></defs><g id="a"/><g id="b"><g><line class="d" x1="456.96" y1="652.08" x2="462.57" y2="908.52"/><path class="d" d="M401.75,668.62l1.84,84.15"/><path class="d" d="M344.77,580.09s2.04,138.02,3.08,185.79"/><path class="e" d="M289.12,583.24s3.12,146.52,4.29,200.78"/><line class="d" x1="233.64" y1="626.88" x2="237.49" y2="798.92"/><path class="d" d="M178.9,625.55l3.56,189.51"/><line class="d" x1="119.81" y1="507.66" x2="126.66" y2="831.03"/><line class="d" x1="236.69" y1="626.33" x2="175.8" y2="627.48"/><line class="d" x1="344.85" y1="583.47" x2="286.1" y2="585.61"/><line class="d" x1="517.11" y1="722.34" x2="17.27" y2="857.73"/><path class="d" d="M512.13,634.3c.64,30.67,1.31,61.15,2.61,91.35"/><line class="d" x1="400.37" y1="616.28" x2="514.57" y2="637.59"/><line class="d" x1="12.1" y1="773.32" x2="511.88" y2="638.08"/><line class="d" x1="73.95" y1="917.49" x2="70.43" y2="758.47"/><line class="d" x1="396.84" y1="429.41" x2="402.11" y2="667.49"/><line class="d" x1="14.35" y1="770.07" x2="16.02" y2="861.52"/><line class="d" x1="72.1" y1="881.94" x2="14.21" y2="858.46"/><line class="d" x1="455.94" y1="501.67" x2="69.73" y2="607.18"/><line class="d" x1="123.67" y1="632.2" x2="64.98" y2="607.56"/><line class="d" x1="450.37" y1="416.52" x2="63" y2="522.01"/><line class="d" x1="177.27" y1="575.73" x2="171.64" y2="297.42"/><line class="d" x1="231.62" y1="560.3" x2="228.98" y2="400.04"/><line class="d" x1="288.2" y1="547.38" x2="284.8" y2="399.08"/><line class="d" x1="226.06" y1="403.51" x2="287.93" y2="402.28"/><path class="d" d="M66.98,610.72s-1.26-69.9-1.75-92.1"/><path class="d" d="M453.71,505.13s-1.55-69.83-2.05-92.94"/><line class="d" x1="338.39" y1="395.87" x2="454.19" y2="415.58"/><line class="d" x1="343.67" y1="529.95" x2="337.06" y2="250.66"/><line class="d" x1="175.72" y1="423.12" x2="115.29" y2="397.11"/><path class="d" d="M114.72,310.44c.48,22.03,2.63,89.65,2.63,89.65"/><line class="d" x1="115.91" y1="397.25" x2="397.62" y2="322.24"/><path class="d" d="M393.86,232.28c.5,22.99,.72,70.28,1.23,93.48"/><line class="d" x1="112.41" y1="313.74" x2="391.65" y2="236.96"/><line class="d" x1="266.59" y1="213.43" x2="396.77" y2="235.6"/><line class="d" x1="241.7" y1="168.72" x2="228.75" y2="368.47"/><line class="d" x1="262.62" y1="167.74" x2="283.27" y2="354.65"/><line class="d" x1="273.95" y1="149.58" x2="230.54" y2="150.44"/><line class="d" x1="274.31" y1="168.39" x2="231.11" y2="169.03"/><line class="d" x1="271.34" y1="171.84" x2="270.79" y2="146.27"/><line class="d" x1="234.1" y1="172.41" x2="233.54" y2="147.09"/><line class="d" x1="251.47" y1="151.11" x2="250.52" y2="117.32"/><line class="d" x1="250.07" y1="92.13" x2="248.71" y2="19.46"/><line class="d" x1="250.24" y1="64.93" x2="310.67" y2="62.93"/><line class="d" x1="289.62" y1="40.24" x2="313.28" y2="63.54"/><line class="d" x1="312.48" y1="21.61" x2="289.32" y2="44.88"/><polygon class="c" points="320.47 65.67 312.07 58.3 295.03 66.44 320.47 65.67"/><polygon class="c" points="319.97 18.37 310.37 18.46 310.44 27.89 319.97 18.37"/><line class="d" x1="248.05" y1="22.88" x2="312.39" y2="21.4"/><ellipse class="d" cx="250.41" cy="106.13" rx="12.22" ry="12.26" transform="translate(-2.26 5.5) rotate(-1.25)"/></g></g></svg>