<?xml version="1.0" encoding="UTF-8"?><svg id="a" xmlns="http://www.w3.org/2000/svg" viewBox="0 0 595.28 841.89"><defs><style>.b{fill:none;stroke:#000;stroke-miterlimit:10;stroke-width:5px;}</style></defs><line class="b" x1="214.44" y1="827.59" x2="214.44" y2="13.59"/><line class="b" x1="239.31" y1="827.59" x2="239.31" y2="13.59"/><line class="b" x1="212.69" y1="218.43" x2="94.25" y2="217.95"/><line class="b" x1="212.69" y1="249.56" x2="94.25" y2="249.08"/><line class="b" x1="212.69" y1="588.73" x2="94.25" y2="588.25"/><line class="b" x1="212.69" y1="588.73" x2="94.25" y2="588.25"/><line class="b" x1="212.69" y1="619.87" x2="94.25" y2="619.39"/><line class="b" x1="489.25" y1="603.56" x2="239.31" y2="604"/><line class="b" x1="489.2" y1="233.81" x2="240.46" y2="233.69"/><line class="b" x1="359.96" y1="296.93" x2="241.5" y2="296.96"/><line class="b" x1="307.98" y1="361.03" x2="239.88" y2="360.66"/><line class="b" x1="238.22" y1="477.28" x2="308.7" y2="476.46"/><line class="b" x1="239.3" y1="540.26" x2="364.83" y2="540.82"/><line class="b" x1="359.29" y1="169.81" x2="241.42" y2="169.96"/><line class="b" x1="307.98" y1="106.47" x2="241.24" y2="106.07"/><line class="b" x1="307.38" y1="731.3" x2="239.27" y2="730.97"/><line class="b" x1="239.4" y1="667.53" x2="360.81" y2="667.11"/><path class="b" d="M296.2,788.58c.29-23.8,5.6-126.44,192.3-184.98"/><path class="b" d="M488.43,233.82c-176.37,34.61-328,255.6-.16,369.48"/><path class="b" d="M294.86,48.39c-.1,100,118.24,166.48,193.71,185.4"/></svg>