<?xml version="1.0" encoding="UTF-8"?><svg id="a" xmlns="http://www.w3.org/2000/svg" viewBox="0 0 827.04 403.4"><defs><style>.b{fill:none;stroke:#fff;stroke-miterlimit:10;stroke-width:5px;}</style></defs><line class="b" x1="822.05" y1="279.81" x2="8.05" y2="279.81"/><line class="b" x1="822.05" y1="254.94" x2="8.05" y2="254.94"/><line class="b" x1="212.89" y1="281.56" x2="212.41" y2="400"/><line class="b" x1="244.03" y1="281.56" x2="243.55" y2="400"/><line class="b" x1="583.19" y1="281.56" x2="582.71" y2="400"/><line class="b" x1="583.19" y1="281.56" x2="582.71" y2="400"/><line class="b" x1="614.33" y1="281.56" x2="613.85" y2="400"/><line class="b" x1="598.02" y1="5" x2="598.46" y2="254.94"/><line class="b" x1="228.27" y1="5.05" x2="228.15" y2="253.79"/><line class="b" x1="291.39" y1="134.29" x2="291.42" y2="252.75"/><line class="b" x1="355.5" y1="186.27" x2="355.12" y2="254.37"/><line class="b" x1="471.75" y1="256.03" x2="470.92" y2="185.55"/><line class="b" x1="534.73" y1="254.95" x2="535.29" y2="129.42"/><line class="b" x1="164.27" y1="134.96" x2="164.42" y2="252.83"/><line class="b" x1="100.93" y1="186.27" x2="100.53" y2="253.01"/><line class="b" x1="725.77" y1="186.87" x2="725.43" y2="254.98"/><line class="b" x1="662" y1="254.85" x2="661.58" y2="133.44"/><path class="b" d="M783.04,198.05c-23.8-.29-126.44-5.6-184.98-192.3"/><path class="b" d="M228.29,5.82c34.61,176.37,255.6,328,369.48,.16"/><path class="b" d="M42.86,199.39c100,.1,166.48-118.24,185.4-193.71"/></svg>