<?xml version="1.0" encoding="UTF-8"?><svg id="a" xmlns="http://www.w3.org/2000/svg" viewBox="0 0 595.28 841.89"><defs><style>.b{stroke-width:7.97px;}.b,.c,.d,.e,.f{stroke:#000;stroke-miterlimit:10;}.b,.e,.f{fill:#fff;}.c,.d{fill:none;}.c,.e{stroke-width:6.97px;}.d,.f{stroke-width:6.98px;}</style></defs><line class="f" x1="521.79" y1="828.59" x2="521.74" y2="658.59"/><line class="b" x1="402.63" y1="575.01" x2="523" y2="661.82"/><line class="f" x1="404.16" y1="484.93" x2="403.87" y2="578.43"/><line class="f" x1="374.47" y1="461.72" x2="405.19" y2="487.67"/><line class="f" x1="375.48" y1="327.88" x2="375.71" y2="464.62"/><line class="b" x1="241.49" y1="331.02" x2="386.49" y2="331.02"/><line class="e" x1="252.94" y1="464.52" x2="252.97" y2="332.52"/><line class="e" x1="224.22" y1="488.02" x2="254.37" y2="461.87"/><line class="e" x1="224.36" y1="578.37" x2="225.23" y2="485.62"/><line class="e" x1="105.41" y1="662.59" x2="225.85" y2="575.53"/><line class="e" x1="106.72" y1="828.2" x2="106.79" y2="659.7"/><path class="e" d="M375.7,828.74s-.63-183.75-.63-245"/><line class="f" x1="252.97" y1="828.2" x2="252.81" y2="592.7"/><path class="d" d="M315.91,494.47c-32.95,13.75-60.63,43.58-63.17,99.16"/><path class="d" d="M375.11,584.42c-1.64-29.57-15.75-68-61.63-89.62"/><path class="d" d="M316.33,724.58c-16.55,7.87-32.01,23.04-33.22,54.54"/><path class="d" d="M345.61,776.31c-1.01-17.15-8.93-39.04-32.52-51.82"/><line class="f" x1="378.21" y1="771.93" x2="523.24" y2="771.49"/><line class="f" x1="252.94" y1="694.93" x2="375.7" y2="694.54"/><line class="f" x1="109.71" y1="771.96" x2="250.74" y2="771.52"/><line class="f" x1="348.25" y1="303.66" x2="380.16" y2="330.64"/><line class="f" x1="247.93" y1="330.41" x2="282.4" y2="303.63"/><line class="f" x1="297.78" y1="275.99" x2="281.45" y2="304.81"/><line class="f" x1="330.33" y1="275.53" x2="348.95" y2="304.46"/><path class="f" d="M297.07,237.95c0,10.5-.33,42.75-.33,42.75"/><line class="f" x1="335.14" y1="277.31" x2="293.17" y2="277.2"/><path class="f" d="M331.63,279.77c0-10.69-.15-31.38-.15-42.43"/><line class="f" x1="312.9" y1="174.4" x2="297" y2="238.97"/><line class="f" x1="331.54" y1="238.47" x2="315.46" y2="174.47"/><line class="f" x1="295.42" y1="239.46" x2="332.92" y2="239.43"/><ellipse class="d" cx="314.32" cy="164.98" rx="8.63" ry="8.87"/><line class="d" x1="314.08" y1="106.95" x2="314.09" y2="158.2"/><line class="d" x1="296.11" y1="120.81" x2="332.36" y2="120.75"/><path class="d" d="M462.42,772.91s-.02-60.99-.03-81.5"/><path class="d" d="M462.41,691.55c.06-10.28-5.57-21.75-16.98-26.76"/><path class="d" d="M430.43,771.91s.02-60.24,.02-80.5"/><path class="d" d="M430.44,691.55c1.21-14.23,6.68-21.03,17.78-26.71"/><path class="d" d="M191.42,774.36s-.02-62.82-.02-83.95"/><path class="d" d="M191.41,690.55c.06-10.28-5.57-21.75-16.98-26.76"/><path class="d" d="M159.42,774.36s.02-62.82,.02-83.95"/><path class="d" d="M159.44,690.55c1.21-14.23,6.68-21.03,17.78-26.71"/><line class="e" x1="282.8" y1="694.22" x2="283.04" y2="618.74"/><line class="e" x1="345.99" y1="695.44" x2="345.74" y2="619.36"/><path class="c" d="M316.23,565.89c-20.4,8.6-32.45,28.57-33.07,53.17"/><path class="c" d="M313.61,566.2c3.87,.59,32.08,17.27,32.16,54.07"/><line class="e" x1="283.32" y1="828.43" x2="283.24" y2="775.93"/><line class="e" x1="345.78" y1="828.74" x2="345.71" y2="776.24"/><line class="d" x1="276.91" y1="398.54" x2="277.1" y2="376.29"/><line class="d" x1="304.98" y1="398.54" x2="304.86" y2="377.78"/><path class="d" d="M304.85,377.85c-.18-17.31-27.5-16.48-27.75-.72"/><line class="d" x1="323.41" y1="399.04" x2="323.6" y2="376.79"/><line class="d" x1="351.48" y1="399.04" x2="351.36" y2="378.28"/><path class="d" d="M351.35,378.35c-.18-17.31-27.5-16.48-27.75-.72"/></svg>