<?xml version="1.0" encoding="UTF-8"?><svg id="a" xmlns="http://www.w3.org/2000/svg" viewBox="0 0 546.89 504"><defs><style>.b{fill:none;stroke:#6b9299;stroke-miterlimit:10;stroke-width:5.1px;}</style></defs><line class="b" x1="273.41" y1="131.69" x2="273.87" y2="485.69"/><line class="b" x1="532.45" y1="131.07" x2="532.43" y2="423.05"/><line class="b" x1="530.52" y1="133.65" x2="12.05" y2="132.69"/><line class="b" x1="14.31" y1="423.59" x2="14.05" y2="131.59"/><line class="b" x1="531.57" y1="420.58" x2="12.59" y2="421.04"/><path class="b" d="M104.07,132.19c0,71.25,.27,286.5,.27,286.5"/><line class="b" x1="146.52" y1="132.8" x2="146.34" y2="347.3"/><line class="b" x1="189.04" y1="349.88" x2="189.02" y2="121.38"/><line class="b" x1="231.02" y1="347.9" x2="231.34" y2="134.4"/><line class="b" x1="103.42" y1="204.98" x2="274.42" y2="205.41"/><line class="b" x1="104.38" y1="276.65" x2="272.87" y2="276.58"/><line class="b" x1="105.37" y1="347.57" x2="272.36" y2="347.72"/><line class="b" x1="173.18" y1="485.65" x2="173.23" y2="421.15"/><line class="b" x1="73.38" y1="487.02" x2="72.92" y2="420.54"/><line class="b" x1="73.38" y1="484.02" x2="476.43" y2="484.46"/><line class="b" x1="473.83" y1="420.42" x2="473.69" y2="486.91"/><line class="b" x1="74.2" y1="452.81" x2="473.86" y2="452.8"/><line class="b" x1="374.12" y1="484.29" x2="373.59" y2="421.29"/><path class="b" d="M492.13,57.46c0,19.25-.12,76.5-.12,76.5"/><line class="b" x1="53.93" y1="57.49" x2="53.76" y2="133.49"/><line class="b" x1="356.84" y1="132.33" x2="356.86" y2="122.35"/><path class="b" d="M187.75,123.75c39.46-13.88,140.27-13.85,170.5,.97"/><line class="b" x1="476.33" y1="50.04" x2="476.45" y2="123.04"/><line class="b" x1="458.16" y1="113.53" x2="457.82" y2="41.55"/><line class="b" x1="436.12" y1="106.59" x2="436.34" y2="34.59"/><path class="b" d="M55.8,130.82c106.8-68.27,385.21-47.5,438.7,3.1"/><path class="b" d="M52.8,59.82C159.61-8.45,404.75-1.28,493.51,59.42"/></svg>