<svg xmlns="http://www.w3.org/2000/svg" xmlns:xlink="http://www.w3.org/1999/xlink" width="500" zoomAndPan="magnify" viewBox="0 0 375 374.999991" height="500" preserveAspectRatio="xMidYMid meet" version="1.0"><defs><clipPath id="id1"><path d="M 5 57.238281 L 370.246094 57.238281 L 370.246094 317.488281 L 5 317.488281 Z M 5 57.238281 " clip-rule="nonzero"/></clipPath></defs><rect x="-37.5" width="450" fill="#ffffff" y="-37.499999" height="449.999989" fill-opacity="1"/><rect x="-37.5" width="450" fill="#ffffff" y="-37.499999" height="449.999989" fill-opacity="1"/><rect x="-37.5" width="450" fill="#ffffff" y="-37.499999" height="449.999989" fill-opacity="1"/><g clip-path="url(#id1)"><path fill="#000000" d="M 44.238281 57.238281 C 22.640625 57.238281 5.132812 74.6875 5.132812 96.273438 C 5.617188 155.46875 5.136719 218.125 5.132812 278.449219 C 5.132812 299.226562 21.320312 316.039062 41.792969 317.285156 L 332.632812 317.488281 C 353.484375 316.648438 370.105469 299.5 370.105469 278.449219 L 370.105469 89.566406 C 366.941406 71.164062 350.9375 57.238281 331.613281 57.238281 C 235.875 57.28125 140.015625 57.238281 44.238281 57.238281 Z M 43.625 77.773438 L 332.835938 77.773438 L 192.914062 217.453125 C 190.359375 220.003906 186.300781 220.003906 183.75 217.453125 Z M 350.554688 87.734375 L 350.554688 277.027344 C 350.554688 288.304688 346.484375 294.675781 338.335938 296.953125 L 239.761719 198.34375 L 350.554688 87.738281 Z M 26.929688 88.546875 L 135.894531 197.324219 L 36.300781 296.746094 C 29.484375 294.449219 27.109375 288.972656 26.933594 281.5 L 26.933594 88.550781 Z M 149.742188 210.945312 L 183.753906 245.101562 C 186.308594 247.648438 190.367188 247.648438 192.921875 245.101562 L 225.914062 212.164062 L 311.867188 297.96875 L 62.574219 297.96875 L 149.746094 210.945312 Z M 149.742188 210.945312 " fill-opacity="1" fill-rule="nonzero"/></g></svg>