<?xml version="1.0" encoding="UTF-8"?>
<svg id="a" xmlns="http://www.w3.org/2000/svg" viewBox="0 0 1014.91 1321.46">
  <defs>
    <style>
      .cls-1 {
        stroke-width: 3px;
      }

      .cls-1, .cls-2, .cls-3, .cls-4 {
        fill: none;
        stroke: #fff;
        stroke-miterlimit: 10;
      }

      .cls-5 {
        fill: #fff;
        font-family: Gotham-Bold, Gotham;
        font-size: 98.8px;
      }

      .cls-2 {
        stroke-width: 6.97px;
      }

      .cls-3 {
        stroke-width: 7.97px;
      }

      .cls-4 {
        stroke-width: 6.98px;
      }
    </style>
  </defs>
  <g>
    <circle class="cls-1" cx="481.78" cy="576.33" r="461.22"/>
    <g>
      <line class="cls-4" x1="716.2" y1="957.59" x2="716.15" y2="767.33"/>
      <line class="cls-3" x1="582.85" y1="673.8" x2="717.56" y2="770.95"/>
      <line class="cls-4" x1="584.56" y1="572.98" x2="584.24" y2="677.62"/>
      <line class="cls-4" x1="551.33" y1="547.01" x2="585.71" y2="576.05"/>
      <line class="cls-4" x1="552.46" y1="397.22" x2="552.72" y2="550.26"/>
      <line class="cls-3" x1="402.51" y1="400.74" x2="564.78" y2="400.74"/>
      <line class="cls-2" x1="415.34" y1="550.14" x2="415.36" y2="402.42"/>
      <line class="cls-2" x1="383.19" y1="576.44" x2="416.92" y2="547.18"/>
      <line class="cls-2" x1="383.34" y1="677.56" x2="384.31" y2="573.76"/>
      <line class="cls-2" x1="250.22" y1="771.81" x2="385.01" y2="674.37"/>
      <line class="cls-2" x1="251.68" y1="957.15" x2="251.76" y2="768.58"/>
      <path class="cls-2" d="M552.71,957.76s-.71-205.64-.71-274.19"/>
      <line class="cls-4" x1="415.36" y1="957.15" x2="415.18" y2="693.59"/>
      <path class="cls-4" d="M485.8,583.66c-36.88,15.39-67.85,48.77-70.7,110.97"/>
      <path class="cls-4" d="M552.05,684.33c-1.84-33.09-17.63-76.1-68.97-100.3"/>
      <path class="cls-4" d="M486.27,841.19c-18.52,8.81-35.82,25.78-37.18,61.04"/>
      <path class="cls-4" d="M519.03,899.08c-1.13-19.19-9.99-43.69-36.39-57.99"/>
      <line class="cls-4" x1="555.52" y1="894.18" x2="717.83" y2="893.68"/>
      <line class="cls-4" x1="415.34" y1="808" x2="552.71" y2="807.57"/>
      <line class="cls-4" x1="255.03" y1="894.21" x2="412.86" y2="893.72"/>
      <line class="cls-4" x1="521.99" y1="370.12" x2="557.71" y2="400.31"/>
      <line class="cls-4" x1="409.72" y1="400.06" x2="448.29" y2="370.09"/>
      <line class="cls-4" x1="465.51" y1="339.15" x2="447.23" y2="371.41"/>
      <line class="cls-4" x1="501.93" y1="338.64" x2="522.77" y2="371.01"/>
      <path class="cls-4" d="M464.71,296.58c0,11.75-.37,47.84-.37,47.84"/>
      <line class="cls-4" x1="507.33" y1="340.63" x2="460.35" y2="340.51"/>
      <path class="cls-4" d="M503.39,343.38c0-11.96-.17-35.12-.17-47.48"/>
      <line class="cls-4" x1="482.43" y1="225.46" x2="464.63" y2="297.72"/>
      <line class="cls-4" x1="503.29" y1="297.16" x2="485.29" y2="225.54"/>
      <line class="cls-4" x1="462.86" y1="298.27" x2="504.83" y2="298.24"/>
      <ellipse class="cls-4" cx="484.02" cy="214.92" rx="9.66" ry="9.93"/>
      <line class="cls-4" x1="483.75" y1="149.97" x2="483.77" y2="207.33"/>
      <line class="cls-4" x1="463.65" y1="165.48" x2="504.22" y2="165.42"/>
      <path class="cls-4" d="M649.76,895.27s-.02-68.26-.03-91.21"/>
      <path class="cls-4" d="M649.75,804.22c.07-11.5-6.23-24.34-19-29.95"/>
      <path class="cls-4" d="M613.96,894.15s.02-67.42,.02-90.09"/>
      <path class="cls-4" d="M613.97,804.22c1.35-15.93,7.48-23.54,19.9-29.89"/>
      <path class="cls-4" d="M346.47,896.9s-.02-70.3-.02-93.95"/>
      <path class="cls-4" d="M346.46,803.1c.07-11.5-6.23-24.34-19-29.95"/>
      <path class="cls-4" d="M310.66,896.9s.02-70.3,.02-93.95"/>
      <path class="cls-4" d="M310.68,803.1c1.35-15.93,7.48-23.54,19.9-29.89"/>
      <line class="cls-2" x1="448.74" y1="807.21" x2="449.01" y2="722.74"/>
      <line class="cls-2" x1="519.46" y1="808.57" x2="519.19" y2="723.43"/>
      <path class="cls-2" d="M486.15,663.59c-22.83,9.62-36.32,31.97-37.01,59.5"/>
      <path class="cls-2" d="M483.23,663.94c4.33,.66,35.9,19.33,35.99,60.51"/>
      <line class="cls-2" x1="449.32" y1="957.41" x2="449.24" y2="898.65"/>
      <line class="cls-2" x1="519.22" y1="957.76" x2="519.15" y2="899"/>
      <line class="cls-4" x1="442.15" y1="476.3" x2="442.36" y2="451.4"/>
      <line class="cls-4" x1="473.56" y1="476.3" x2="473.43" y2="453.07"/>
      <path class="cls-4" d="M473.43,453.15c-.2-19.37-30.78-18.44-31.06-.81"/>
      <line class="cls-4" x1="494.19" y1="476.86" x2="494.4" y2="451.96"/>
      <line class="cls-4" x1="525.6" y1="476.86" x2="525.47" y2="453.63"/>
      <path class="cls-4" d="M525.47,453.71c-.2-19.37-30.78-18.44-31.06-.81"/>
    </g>
  </g>
  <text class="cls-5" transform="translate(290.3 1189.26)"><tspan x="0" y="0">Odense</tspan></text>
</svg>