<svg xmlns="http://www.w3.org/2000/svg" xmlns:xlink="http://www.w3.org/1999/xlink" width="500" zoomAndPan="magnify" viewBox="0 0 375 374.999991" height="500" preserveAspectRatio="xMidYMid meet" version="1.0"><defs><clipPath id="id1"><path d="M 9 16 L 356 16 L 356 371.847656 L 9 371.847656 Z M 9 16 " clip-rule="nonzero"/></clipPath></defs><rect x="-37.5" width="450" fill="#ffffff" y="-37.499999" height="449.999989" fill-opacity="1"/><rect x="-37.5" width="450" fill="#ffffff" y="-37.499999" height="449.999989" fill-opacity="1"/><rect x="-37.5" width="450" fill="#ffffff" y="-37.499999" height="449.999989" fill-opacity="1"/><rect x="-37.5" width="450" fill="#ffffff" y="-37.499999" height="449.999989" fill-opacity="1"/><g clip-path="url(#id1)"><path fill="#282828" d="M 339.367188 332.347656 L 339.445312 332.347656 Z M 68.675781 32.371094 C 65.253906 32.371094 62.015625 33.921875 58.496094 36.996094 C 58.113281 37.359375 53.078125 42.125 49.804688 45.238281 L 46.945312 47.933594 C 30.25 63.519531 22.679688 91.570312 27.660156 119.414062 C 29.261719 128.402344 31.851562 137.722656 35.351562 147.101562 C 53 194.417969 86.503906 235.554688 111.507812 261.742188 C 136.398438 288.101562 175.761719 323.699219 222.136719 343.824219 C 231.335938 347.8125 240.515625 350.894531 249.421875 352.976562 C 277.007812 359.429688 305.476562 353.386719 321.945312 337.578125 L 324.691406 334.976562 C 327.878906 331.96875 332.855469 327.269531 333.574219 326.574219 C 343.832031 316.042969 338.707031 307.289062 318.136719 286.402344 L 312.988281 281.128906 C 299.957031 267.628906 278.09375 245.023438 259.609375 247.226562 C 254.582031 247.820312 249.335938 251.480469 243.78125 255.347656 C 238.269531 259.1875 232.574219 263.152344 225.742188 265.316406 C 207.390625 271.125 188.785156 267.308594 173.324219 254.589844 C 164.082031 246.984375 154.675781 238.085938 146.132812 228.882812 C 137.492188 219.992188 129.097656 210.144531 121.992188 200.53125 C 110.105469 184.449219 107.289062 165.695312 114.074219 147.714844 C 116.605469 141.011719 120.878906 135.546875 125.015625 130.257812 C 129.183594 124.929688 133.125 119.898438 133.980469 114.917969 C 137.160156 96.566406 115.730469 73.609375 102.921875 59.886719 L 97.933594 54.480469 C 84.359375 39.65625 76.101562 32.371094 68.675781 32.371094 Z M 271.679688 371.84375 C 262.460938 371.84375 253.597656 370.722656 245.691406 368.875 C 235.832031 366.578125 225.710938 363.183594 215.613281 358.800781 C 166.691406 337.578125 125.539062 300.417969 99.632812 272.980469 C 73.601562 245.722656 38.632812 202.707031 20.019531 152.800781 C 16.175781 142.503906 13.328125 132.234375 11.550781 122.28125 C 6.832031 95.902344 10.714844 59.378906 35.773438 36.011719 L 38.539062 33.386719 C 42.027344 30.082031 47.453125 24.9375 47.675781 24.746094 C 72.742188 2.773438 95.175781 27.257812 110.007812 43.460938 L 114.894531 48.753906 C 129.769531 64.691406 154.667969 91.363281 150.105469 117.699219 C 148.542969 126.714844 142.894531 133.941406 137.914062 140.3125 C 134.375 144.832031 131.027344 149.105469 129.386719 153.472656 C 124.554688 166.273438 126.554688 179.195312 135.160156 190.835938 C 141.835938 199.859375 149.734375 209.128906 158.003906 217.644531 C 166.191406 226.460938 175.046875 234.832031 183.730469 241.988281 C 194.917969 251.195312 207.734375 253.871094 220.800781 249.753906 C 225.253906 248.332031 229.699219 245.238281 234.410156 241.953125 C 241.058594 237.332031 248.578125 232.078125 257.683594 231.007812 C 284.355469 227.867188 309.628906 254.113281 324.769531 269.796875 L 329.808594 274.949219 C 345.21875 290.605469 368.515625 314.265625 345.21875 338.058594 C 344.855469 338.40625 339.386719 343.585938 335.933594 346.839844 L 333.277344 349.359375 C 316.042969 365.902344 292.945312 371.84375 271.679688 371.84375 " fill-opacity="1" fill-rule="nonzero"/></g></svg>