<?xml version="1.0" encoding="UTF-8"?><svg id="a" xmlns="http://www.w3.org/2000/svg" viewBox="0 0 821.11 941.77"><defs><style>.b{stroke-width:5.1px;}.b,.c,.d{stroke:#fff;stroke-miterlimit:10;}.b,.d{fill:none;}.c{fill:#fff;font-family:Gotham-Bold, Gotham;font-size:87.89px;}.d{stroke-width:5px;}</style></defs><g><g><line class="b" x1="411.97" y1="268.47" x2="412.52" y2="699.36"/><line class="b" x1="727.26" y1="267.72" x2="727.24" y2="623.11"/><line class="b" x1="724.91" y1="270.85" x2="93.84" y2="269.69"/><line class="b" x1="96.58" y1="623.76" x2="96.27" y2="268.34"/><line class="b" x1="726.19" y1="620.11" x2="94.5" y2="620.67"/><path class="b" d="M205.85,269.08c0,86.73,.33,348.73,.33,348.73"/><line class="b" x1="257.52" y1="269.83" x2="257.3" y2="530.91"/><line class="b" x1="309.27" y1="534.05" x2="309.25" y2="255.93"/><line class="b" x1="360.36" y1="531.64" x2="360.75" y2="271.77"/><line class="b" x1="205.06" y1="357.68" x2="413.2" y2="358.2"/><line class="b" x1="206.23" y1="444.91" x2="411.31" y2="444.83"/><line class="b" x1="207.42" y1="531.24" x2="410.69" y2="531.42"/><line class="b" x1="289.96" y1="699.3" x2="290.03" y2="620.8"/><line class="b" x1="168.49" y1="700.98" x2="167.93" y2="620.06"/><line class="b" x1="168.49" y1="697.33" x2="659.08" y2="697.86"/><line class="b" x1="655.92" y1="619.9" x2="655.74" y2="700.85"/><line class="b" x1="169.49" y1="659.33" x2="655.95" y2="659.33"/><line class="b" x1="534.55" y1="697.66" x2="533.9" y2="620.97"/><path class="b" d="M678.19,178.11c0,23.43-.14,93.11-.14,93.11"/><line class="b" x1="144.81" y1="178.16" x2="144.61" y2="270.66"/><line class="b" x1="513.51" y1="269.25" x2="513.54" y2="257.1"/><path class="b" d="M307.7,258.81c48.03-16.9,170.73-16.86,207.53,1.18"/><line class="b" x1="658.95" y1="169.09" x2="659.1" y2="257.94"/><line class="b" x1="636.84" y1="246.37" x2="636.42" y2="158.75"/><line class="b" x1="610.02" y1="237.92" x2="610.29" y2="150.29"/><path class="b" d="M147.1,267.41c130-83.1,468.88-57.82,533.99,3.78"/><path class="b" d="M143.44,180.99c130-83.1,428.38-74.37,536.42-.48"/></g><circle class="d" cx="410.55" cy="411.41" r="392.51"/></g><text class="c" transform="translate(254.64 928.58)"><tspan x="0" y="0">Aarhus</tspan></text></svg>