<?xml version="1.0" encoding="UTF-8"?><svg id="a" xmlns="http://www.w3.org/2000/svg" viewBox="0 0 904.51 941.77"><defs><style>.b{letter-spacing:-.02em;}.c{font-family:Gotham-Bold, Gotham;font-size:87.89px;}.c,.d,.e{stroke:#fff;stroke-miterlimit:10;}.c,.e{fill:#fff;}.d{fill:none;stroke-width:5px;}</style></defs><g><g><path class="e" d="M589.72,628.8c11.11,3.72,22.76,5.6,34.48,5.55v.91l.16-.92c59.88-.27,108.42-49.17,108.2-108.97-.01-41.36-23.71-79.05-60.98-96.98l-.92-.44,.12-.18-142.53-78.44c-16.3,9.32-34.39,15.09-53.08,16.91l107.36,58.98-1.7,.74c-55.04,23.79-80.43,87.65-56.75,142.74,12.53-6.07,24.18-13.83,34.61-23.06-10.94-36.04,9.4-74.12,45.43-85.06,6.31-1.92,12.87-2.91,19.46-2.94,37.66,.09,68.11,30.7,68.02,68.36-.09,34.48-25.9,63.47-60.14,67.54-12.54,13.29-26.54,25.11-41.75,35.24"/><path class="e" d="M213.83,444.03c-22.62,20.67-35.48,49.92-35.43,80.56,.26,59.89,49.16,108.44,109,108.23v.91l.09-.91c17.3-.05,34.34-4.26,49.68-12.27,4.25-2.24,8.37-4.73,12.33-7.44l140.15-85.23v-3.6c.2-17.2,3.73-34.21,10.38-50.07l-105.29,63.88,.21-1.85c.5-4.12,.75-8.28,.73-12.43-.03-55.42-41.92-101.86-97.05-107.59-.2,2.78-.31,5.67-.34,8.89-.15,10.83,.83,21.64,2.92,32.26,36.84,7.82,60.37,44.02,52.55,80.86-3.49,16.43-12.92,31-26.48,40.91l-9.95,6.09c-9.31,4.69-19.59,7.12-30.01,7.08-37.63,.13-68.27-30.23-68.48-67.86-.05-8.9,1.66-17.72,5.04-25.95-5.43-17.71-8.81-35.98-10.07-54.46"/><path class="e" d="M354.25,408.37c15.87,9.35,29.67,21.84,40.56,36.7l-.42-127.74,1.48,1.14c18.57,14.52,41.39,22.56,64.97,22.88h1.87c33.14-.1,64.4-15.44,84.75-41.6-11.21-8.1-23.45-14.67-36.39-19.53-12.71,13.17-30.21,20.62-48.5,20.67h-1.2c-36.69-.39-66.45-29.83-67.22-66.52v-3.74c1-36.77,31.07-66.08,67.86-66.13h1.11c21.7,.33,41.95,10.96,54.55,28.63,17.89,4.7,35.18,11.48,51.49,20.2-9.19-51.23-53.47-88.72-105.51-89.33h-1.75c-57.32,.3-104.57,45.06-107.95,102.29l-.05,.97h-.22v3.42c-.01,.19-.01,.39,0,.58v2.34l.56,174.75Z"/><path class="e" d="M284.53,565.34c.52,.05,1.04,.07,1.56,.06h.16c14.1,.04,27.26-7.1,34.92-18.94-63.12-70.94-60.04-178.77,7.02-245.99l-.13-52.18c-57.02,40.68-91.29,106.07-92.28,176.11-.88,51.28,16.41,101.22,48.8,140.99"/><path class="e" d="M627.68,375.81l45.94,25.25c-13.1-109.36-105.16-192.11-215.29-193.53-10.02-.07-20.04,.47-30,1.62-4.75,6.78-7.36,14.83-7.48,23.11-.08,6.2,1.25,12.34,3.9,17.94,10.93-1.93,22.02-2.8,33.12-2.61,78.5,1.16,147.21,53.03,169.81,128.22"/><path class="e" d="M371.75,630.46c25.66,10.56,53.1,16.13,80.85,16.41h3.7c90.22-.39,171.06-55.82,203.95-139.83-6.8-12.98-19.97-21.37-34.6-22.04-24.7,72.64-92.77,121.61-169.5,121.93h-3.05c-12.05-.18-24.05-1.57-35.82-4.16l-45.53,27.68Z"/></g><circle class="d" cx="455.48" cy="403.33" r="392.51"/></g><text class="c" transform="translate(22.32 920.5)"><tspan x="0" y="0">Københ</tspan><tspan class="b" x="345.22" y="0">a</tspan><tspan x="395.5" y="0">vn, Aarhus</tspan></text></svg>