<?xml version="1.0" encoding="UTF-8"?><svg id="a" xmlns="http://www.w3.org/2000/svg" viewBox="0 0 821.11 941.77"><defs><style>.b{letter-spacing:-.02em;}.c,.d{stroke-width:6.99px;}.c,.d,.e,.f,.g,.h{stroke:#fff;stroke-miterlimit:10;}.c,.e,.g,.h{fill:#fff;}.d,.f{fill:none;}.e{font-family:Gotham-Bold, Gotham;font-size:87.89px;}.f{stroke-width:5px;}.g{stroke-width:7px;}</style></defs><text class="e" transform="translate(157.89 925.73)"><tspan x="0" y="0">Københ</tspan><tspan class="b" x="345.22" y="0">a</tspan><tspan x="395.5" y="0">vn</tspan></text><g><circle class="f" cx="409.38" cy="408.55" r="392.51"/><g><line class="c" x1="553.95" y1="546.95" x2="558.17" y2="739.69"/><path class="c" d="M512.46,559.38l1.38,63.25"/><path class="c" d="M469.63,492.84s1.53,103.73,2.32,139.63"/><path class="g" d="M427.81,495.21s2.35,110.12,3.23,150.9"/><line class="c" x1="386.11" y1="528.01" x2="389" y2="657.31"/><path class="c" d="M344.97,527.01l2.68,142.43"/><line class="c" x1="300.56" y1="438.41" x2="305.71" y2="681.44"/><line class="c" x1="388.41" y1="527.6" x2="342.64" y2="528.46"/><line class="c" x1="469.69" y1="495.38" x2="425.54" y2="497"/><line class="c" x1="599.16" y1="599.76" x2="223.49" y2="701.51"/><path class="c" d="M595.42,533.59c.48,23.05,.98,45.96,1.96,68.65"/><line class="c" x1="511.42" y1="520.04" x2="597.25" y2="536.06"/><line class="c" x1="219.61" y1="638.07" x2="595.23" y2="536.43"/><line class="c" x1="266.09" y1="746.43" x2="263.45" y2="626.91"/><line class="c" x1="508.76" y1="379.6" x2="512.73" y2="558.53"/><line class="c" x1="221.3" y1="635.63" x2="222.56" y2="704.36"/><line class="c" x1="264.7" y1="719.71" x2="221.2" y2="702.06"/><line class="c" x1="553.18" y1="433.91" x2="262.93" y2="513.21"/><line class="c" x1="303.46" y1="532.01" x2="259.35" y2="513.49"/><line class="c" x1="549" y1="369.91" x2="257.86" y2="449.2"/><line class="c" x1="343.74" y1="489.57" x2="339.52" y2="280.4"/><line class="c" x1="384.59" y1="477.97" x2="382.61" y2="357.53"/><line class="c" x1="427.11" y1="468.26" x2="424.56" y2="356.81"/><line class="c" x1="380.42" y1="360.14" x2="426.92" y2="359.21"/><path class="c" d="M260.86,515.87s-.95-52.54-1.31-69.22"/><path class="c" d="M551.51,436.51s-1.16-52.48-1.54-69.85"/><line class="c" x1="464.83" y1="354.39" x2="551.87" y2="369.2"/><line class="c" x1="468.81" y1="455.16" x2="463.84" y2="245.26"/><line class="c" x1="342.58" y1="374.87" x2="297.17" y2="355.33"/><path class="c" d="M296.73,290.19c.36,16.56,1.98,67.38,1.98,67.38"/><line class="c" x1="297.63" y1="355.43" x2="509.36" y2="299.06"/><path class="c" d="M506.53,231.44c.38,17.28,.54,52.82,.93,70.26"/><line class="c" x1="295" y1="292.67" x2="504.86" y2="234.96"/><line class="c" x1="410.87" y1="217.28" x2="508.71" y2="233.94"/><line class="c" x1="392.17" y1="183.68" x2="382.44" y2="333.8"/><line class="c" x1="407.89" y1="182.94" x2="423.41" y2="323.41"/><line class="c" x1="416.41" y1="169.29" x2="383.78" y2="169.94"/><line class="c" x1="416.67" y1="183.43" x2="384.21" y2="183.91"/><line class="c" x1="414.45" y1="186.02" x2="414.03" y2="166.8"/><line class="c" x1="386.46" y1="186.45" x2="386.04" y2="167.42"/><line class="c" x1="399.51" y1="170.44" x2="398.8" y2="145.04"/><line class="c" x1="398.46" y1="126.11" x2="397.43" y2="71.5"/><line class="c" x1="398.59" y1="105.67" x2="444" y2="104.17"/><line class="c" x1="428.18" y1="87.11" x2="445.97" y2="104.63"/><line class="c" x1="445.36" y1="73.11" x2="427.96" y2="90.6"/><polygon class="h" points="451.37 106.23 445.06 100.69 432.25 106.81 451.37 106.23"/><polygon class="h" points="450.99 70.68 443.78 70.75 443.83 77.83 450.99 70.68"/><line class="c" x1="396.94" y1="74.07" x2="445.3" y2="72.96"/><ellipse class="d" cx="398.72" cy="136.64" rx="9.19" ry="9.22" transform="translate(-2.89 8.75) rotate(-1.25)"/></g></g></svg>