<?xml version="1.0" encoding="UTF-8"?><svg id="a" xmlns="http://www.w3.org/2000/svg" viewBox="0 0 530 932"><defs><style>.b,.c,.d{fill:#6b9299;}.b,.c,.d,.e{stroke:#6b9299;stroke-miterlimit:10;}.b,.e{stroke-width:6.99px;}.c{stroke-width:7px;}.e{fill:none;}</style></defs><line class="b" x1="457.36" y1="650.15" x2="462.96" y2="906.59"/><path class="b" d="M402.15,666.69l1.84,84.15"/><path class="b" d="M345.17,578.15s2.04,138.02,3.08,185.79"/><path class="c" d="M289.51,581.3s3.12,146.52,4.29,200.78"/><line class="b" x1="234.04" y1="624.94" x2="237.88" y2="796.99"/><path class="b" d="M179.29,623.61l3.56,189.51"/><line class="b" x1="120.2" y1="505.72" x2="127.06" y2="829.09"/><line class="b" x1="237.09" y1="624.4" x2="176.19" y2="625.55"/><line class="b" x1="345.24" y1="581.53" x2="286.49" y2="583.68"/><line class="b" x1="517.5" y1="720.41" x2="17.66" y2="855.8"/><path class="b" d="M512.53,632.36c.64,30.67,1.31,61.15,2.61,91.35"/><line class="b" x1="400.77" y1="614.34" x2="514.96" y2="635.65"/><line class="b" x1="12.5" y1="771.38" x2="512.28" y2="636.15"/><line class="b" x1="74.34" y1="915.56" x2="70.83" y2="756.53"/><line class="b" x1="397.23" y1="427.48" x2="402.5" y2="665.56"/><line class="b" x1="14.74" y1="768.14" x2="16.42" y2="859.58"/><line class="b" x1="72.49" y1="880.01" x2="14.61" y2="856.53"/><line class="b" x1="456.34" y1="499.74" x2="70.13" y2="605.25"/><line class="b" x1="124.07" y1="630.27" x2="65.37" y2="605.63"/><line class="b" x1="450.77" y1="414.59" x2="63.39" y2="520.08"/><line class="b" x1="177.66" y1="573.8" x2="172.04" y2="295.48"/><line class="b" x1="232.02" y1="558.37" x2="229.37" y2="398.11"/><line class="b" x1="288.59" y1="545.45" x2="285.19" y2="397.15"/><line class="b" x1="226.46" y1="401.58" x2="288.33" y2="400.35"/><path class="b" d="M67.38,608.79s-1.26-69.9-1.75-92.1"/><path class="b" d="M454.11,503.2s-1.55-69.83-2.05-92.94"/><line class="b" x1="338.78" y1="393.93" x2="454.58" y2="413.65"/><line class="b" x1="344.07" y1="528.02" x2="337.45" y2="248.73"/><line class="b" x1="176.11" y1="421.18" x2="115.69" y2="395.18"/><path class="b" d="M115.11,308.51c.48,22.03,2.63,89.65,2.63,89.65"/><line class="b" x1="116.3" y1="395.32" x2="398.02" y2="320.31"/><path class="b" d="M394.26,230.35c.5,22.99,.72,70.28,1.23,93.48"/><line class="b" x1="112.81" y1="311.81" x2="392.04" y2="235.03"/><line class="b" x1="266.98" y1="211.5" x2="397.17" y2="233.67"/><line class="b" x1="242.09" y1="166.79" x2="229.15" y2="366.54"/><line class="b" x1="263.01" y1="165.81" x2="283.67" y2="352.72"/><line class="b" x1="274.35" y1="147.65" x2="230.94" y2="148.51"/><line class="b" x1="274.7" y1="166.46" x2="231.51" y2="167.1"/><line class="b" x1="271.74" y1="169.9" x2="271.18" y2="144.34"/><line class="b" x1="234.49" y1="170.48" x2="233.94" y2="145.15"/><line class="b" x1="251.87" y1="149.18" x2="250.92" y2="115.39"/><line class="b" x1="250.47" y1="90.2" x2="249.1" y2="17.53"/><line class="b" x1="250.63" y1="62.99" x2="311.06" y2="61"/><line class="b" x1="290.02" y1="38.31" x2="313.68" y2="61.61"/><line class="b" x1="312.87" y1="19.67" x2="289.72" y2="42.95"/><polygon class="d" points="320.86 63.74 312.47 56.36 295.43 64.51 320.86 63.74"/><polygon class="d" points="320.36 16.44 310.77 16.53 310.83 25.96 320.36 16.44"/><line class="b" x1="248.44" y1="20.95" x2="312.78" y2="19.47"/><ellipse class="e" cx="250.81" cy="104.2" rx="12.22" ry="12.26" transform="translate(-2.22 5.51) rotate(-1.25)"/></svg>