<?xml version="1.0" encoding="UTF-8"?><svg id="a" xmlns="http://www.w3.org/2000/svg" viewBox="0 0 821.11 941.77"><defs><style>.b{fill:#fff;font-family:Gotham-Bold, Gotham;font-size:87.89px;}.b,.c{stroke:#fff;stroke-miterlimit:10;}.c{fill:none;stroke-width:5px;}</style></defs><g><g><line class="c" x1="751.97" y1="478.99" x2="56.95" y2="478.99"/><line class="c" x1="751.97" y1="457.75" x2="56.95" y2="457.75"/><line class="c" x1="231.85" y1="480.48" x2="231.44" y2="581.61"/><line class="c" x1="258.44" y1="480.48" x2="258.03" y2="581.61"/><line class="c" x1="548.03" y1="480.48" x2="547.62" y2="581.61"/><line class="c" x1="548.03" y1="480.48" x2="547.62" y2="581.61"/><line class="c" x1="574.61" y1="480.48" x2="574.2" y2="581.61"/><line class="c" x1="560.69" y1="244.35" x2="561.06" y2="457.75"/><line class="c" x1="244.98" y1="244.39" x2="244.88" y2="456.77"/><line class="c" x1="298.88" y1="354.74" x2="298.91" y2="455.88"/><line class="c" x1="353.61" y1="399.12" x2="353.29" y2="457.27"/><line class="c" x1="452.87" y1="458.68" x2="452.17" y2="398.51"/><line class="c" x1="506.65" y1="457.76" x2="507.12" y2="350.58"/><line class="c" x1="190.34" y1="355.31" x2="190.47" y2="455.95"/><line class="c" x1="136.26" y1="399.12" x2="135.92" y2="456.1"/><line class="c" x1="669.76" y1="399.63" x2="669.47" y2="457.78"/><line class="c" x1="615.31" y1="457.68" x2="614.95" y2="354.01"/><path class="c" d="M718.66,409.18c-20.32-.25-107.95-4.78-157.94-164.19"/><path class="c" d="M245,245.04c29.55,150.59,218.24,280.06,315.47,.14"/><path class="c" d="M86.67,410.32c85.38,.09,142.15-100.95,158.3-165.4"/></g><circle class="c" cx="410.55" cy="406.11" r="392.51"/></g><text class="b" transform="translate(262.2 923.29)"><tspan x="0" y="0">Malmö</tspan></text></svg>