<?xml version="1.0" encoding="UTF-8"?><svg id="a" xmlns="http://www.w3.org/2000/svg" viewBox="0 0 821.11 941.77"><defs><style>.b{stroke-width:6.97px;}.b,.c,.d,.e,.f{stroke:#fff;stroke-miterlimit:10;}.b,.c,.e,.f{fill:none;}.c{stroke-width:7.97px;}.d{fill:#fff;font-family:Gotham-Bold, Gotham;font-size:87.89px;}.e{stroke-width:5px;}.f{stroke-width:6.98px;}</style></defs><g><g><line class="f" x1="605.42" y1="717.87" x2="605.38" y2="559.15"/><line class="c" x1="494.17" y1="481.12" x2="606.55" y2="562.16"/><line class="f" x1="495.6" y1="397.02" x2="495.33" y2="484.31"/><line class="f" x1="467.88" y1="375.34" x2="496.56" y2="399.57"/><line class="f" x1="468.82" y1="250.38" x2="469.04" y2="378.05"/><line class="c" x1="343.72" y1="253.32" x2="479.1" y2="253.32"/><line class="b" x1="354.42" y1="377.96" x2="354.44" y2="254.72"/><line class="b" x1="327.61" y1="399.9" x2="355.75" y2="375.49"/><line class="b" x1="327.73" y1="484.25" x2="328.54" y2="397.66"/><line class="b" x1="216.67" y1="562.88" x2="329.12" y2="481.6"/><line class="b" x1="217.9" y1="717.5" x2="217.97" y2="560.19"/><path class="b" d="M469.03,718.01s-.59-171.55-.59-228.74"/><line class="f" x1="354.44" y1="717.5" x2="354.29" y2="497.63"/><path class="f" d="M413.21,405.92c-30.76,12.84-56.61,40.69-58.98,92.58"/><path class="f" d="M468.48,489.9c-1.53-27.6-14.71-63.49-57.54-83.67"/><path class="f" d="M413.6,620.76c-15.45,7.35-29.88,21.52-31.02,50.92"/><path class="f" d="M440.93,669.06c-.95-16.01-8.34-36.44-30.36-48.38"/><line class="f" x1="471.37" y1="664.97" x2="606.77" y2="664.56"/><line class="f" x1="354.42" y1="593.08" x2="469.03" y2="592.71"/><line class="f" x1="220.69" y1="664.99" x2="352.36" y2="664.58"/><line class="f" x1="443.4" y1="227.78" x2="473.2" y2="252.97"/><line class="f" x1="349.74" y1="252.75" x2="381.92" y2="227.75"/><line class="f" x1="396.28" y1="201.94" x2="381.03" y2="228.85"/><line class="f" x1="426.67" y1="201.52" x2="444.05" y2="228.52"/><path class="f" d="M395.61,166.42c0,9.8-.31,39.91-.31,39.91"/><line class="f" x1="431.16" y1="203.17" x2="391.98" y2="203.07"/><path class="f" d="M427.88,205.47c0-9.98-.14-29.3-.14-39.62"/><line class="f" x1="410.39" y1="107.09" x2="395.55" y2="167.38"/><line class="f" x1="427.8" y1="166.91" x2="412.78" y2="107.16"/><line class="f" x1="394.07" y1="167.83" x2="429.08" y2="167.81"/><ellipse class="f" cx="411.72" cy="98.3" rx="8.05" ry="8.29"/><line class="f" x1="411.49" y1="44.12" x2="411.51" y2="91.97"/><line class="f" x1="394.72" y1="57.06" x2="428.57" y2="57.01"/><path class="f" d="M549.99,665.88s-.02-56.94-.02-76.09"/><path class="f" d="M549.98,589.92c.06-9.6-5.2-20.31-15.86-24.99"/><path class="f" d="M520.12,664.94s.02-56.24,.02-75.16"/><path class="f" d="M520.13,589.92c1.13-13.29,6.24-19.64,16.6-24.94"/><path class="f" d="M296.98,667.23s-.02-58.66-.02-78.38"/><path class="f" d="M296.96,588.99c.06-9.6-5.2-20.31-15.86-24.99"/><path class="f" d="M267.1,667.23s.02-58.66,.02-78.38"/><path class="f" d="M267.12,588.99c1.13-13.29,6.24-19.64,16.6-24.94"/><line class="b" x1="382.29" y1="592.41" x2="382.52" y2="521.95"/><line class="b" x1="441.29" y1="593.55" x2="441.06" y2="522.52"/><path class="b" d="M413.51,472.61c-19.04,8.03-30.29,26.68-30.88,49.64"/><path class="b" d="M411.06,472.89c3.61,.55,29.95,16.13,30.03,50.48"/><line class="b" x1="382.78" y1="717.71" x2="382.71" y2="668.7"/><line class="b" x1="441.09" y1="718.01" x2="441.03" y2="668.99"/><line class="f" x1="376.79" y1="316.35" x2="376.97" y2="295.59"/><line class="f" x1="403" y1="316.35" x2="402.89" y2="296.97"/><path class="f" d="M402.88,297.04c-.16-16.16-25.67-15.38-25.91-.67"/><line class="f" x1="420.21" y1="316.82" x2="420.38" y2="296.05"/><line class="f" x1="446.42" y1="316.82" x2="446.3" y2="297.44"/><path class="f" d="M446.3,297.51c-.16-16.16-25.67-15.38-25.91-.67"/></g><circle class="e" cx="411.72" cy="408.22" r="392.51"/></g><text class="d" transform="translate(241.4 925.39)"><tspan x="0" y="0">Odense</tspan></text></svg>