<?xml version="1.0" encoding="UTF-8"?><svg id="a" xmlns="http://www.w3.org/2000/svg" viewBox="0 0 444.26 738.38"><defs><style>.b{stroke-width:7.97px;}.b,.c,.d{fill:none;stroke:#b5c9cc;stroke-miterlimit:10;}.c{stroke-width:6.97px;}.d{stroke-width:6.98px;}</style></defs><line class="d" x1="428.1" y1="731.08" x2="428.05" y2="561.08"/><line class="b" x1="308.94" y1="477.5" x2="429.31" y2="564.31"/><line class="d" x1="310.47" y1="387.42" x2="310.18" y2="480.92"/><line class="d" x1="280.78" y1="364.21" x2="311.5" y2="390.16"/><line class="d" x1="281.79" y1="230.37" x2="282.02" y2="367.11"/><line class="b" x1="147.8" y1="233.51" x2="292.8" y2="233.51"/><line class="c" x1="159.26" y1="367.01" x2="159.28" y2="235.01"/><line class="c" x1="130.54" y1="390.51" x2="160.68" y2="364.36"/><line class="c" x1="130.67" y1="480.86" x2="131.54" y2="388.11"/><line class="c" x1="11.72" y1="565.08" x2="132.16" y2="478.01"/><line class="c" x1="13.03" y1="730.69" x2="13.1" y2="562.19"/><path class="c" d="M282.01,731.23s-.63-183.75-.63-245"/><line class="d" x1="159.28" y1="730.69" x2="159.12" y2="495.19"/><path class="d" d="M222.22,396.96c-32.95,13.75-60.63,43.58-63.17,99.16"/><path class="d" d="M281.42,486.91c-1.64-29.57-15.75-68-61.63-89.62"/><path class="d" d="M222.64,627.07c-16.55,7.87-32.01,23.04-33.22,54.54"/><path class="d" d="M251.92,678.8c-1.01-17.15-8.93-39.04-32.52-51.82"/><line class="d" x1="284.52" y1="674.42" x2="429.55" y2="673.98"/><line class="d" x1="159.26" y1="597.42" x2="282.01" y2="597.03"/><line class="d" x1="16.02" y1="674.45" x2="157.05" y2="674.01"/><line class="d" x1="254.56" y1="206.15" x2="286.48" y2="233.13"/><line class="d" x1="154.24" y1="232.9" x2="188.71" y2="206.12"/><line class="d" x1="204.09" y1="178.48" x2="187.76" y2="207.3"/><line class="d" x1="236.64" y1="178.02" x2="255.26" y2="206.95"/><path class="d" d="M203.38,140.44c0,10.5-.33,42.75-.33,42.75"/><line class="d" x1="241.46" y1="179.8" x2="199.48" y2="179.69"/><path class="d" d="M237.94,182.26c0-10.69-.15-31.38-.15-42.43"/><line class="d" x1="219.21" y1="76.89" x2="203.31" y2="141.46"/><line class="d" x1="237.85" y1="140.96" x2="221.77" y2="76.96"/><line class="d" x1="201.73" y1="141.95" x2="239.23" y2="141.92"/><ellipse class="d" cx="220.63" cy="67.47" rx="8.63" ry="8.87"/><line class="d" x1="220.39" y1="9.44" x2="220.41" y2="60.69"/><line class="d" x1="202.43" y1="23.3" x2="238.68" y2="23.24"/><path class="d" d="M368.73,675.4s-.02-60.99-.03-81.5"/><path class="d" d="M368.72,594.04c.06-10.28-5.57-21.75-16.98-26.76"/><path class="d" d="M336.74,674.4s.02-60.24,.02-80.5"/><path class="d" d="M336.75,594.04c1.21-14.23,6.68-21.03,17.78-26.71"/><path class="d" d="M97.73,676.85s-.02-62.82-.02-83.95"/><path class="d" d="M97.72,593.04c.06-10.28-5.57-21.75-16.98-26.76"/><path class="d" d="M65.73,676.85s.02-62.82,.02-83.95"/><path class="d" d="M65.75,593.04c1.21-14.23,6.68-21.03,17.78-26.71"/><line class="c" x1="189.11" y1="596.71" x2="189.35" y2="521.23"/><line class="c" x1="252.3" y1="597.93" x2="252.06" y2="521.85"/><path class="c" d="M222.54,468.38c-20.4,8.6-32.45,28.57-33.07,53.17"/><path class="c" d="M219.93,468.69c3.87,.59,32.08,17.27,32.16,54.07"/><line class="c" x1="189.63" y1="730.92" x2="189.56" y2="678.42"/><line class="c" x1="252.09" y1="731.23" x2="252.02" y2="678.73"/><line class="d" x1="183.22" y1="301.03" x2="183.41" y2="278.78"/><line class="d" x1="211.29" y1="301.03" x2="211.17" y2="280.27"/><path class="d" d="M211.17,280.34c-.18-17.31-27.5-16.48-27.75-.72"/><line class="d" x1="229.72" y1="301.53" x2="229.91" y2="279.28"/><line class="d" x1="257.79" y1="301.53" x2="257.67" y2="280.77"/><path class="d" d="M257.67,280.84c-.18-17.31-27.5-16.48-27.75-.72"/></svg>