<?xml version="1.0" encoding="UTF-8"?><svg id="a" xmlns="http://www.w3.org/2000/svg" viewBox="0 0 584 546"><defs><style>.b{fill:#fff;}</style></defs><path class="b" d="M426.6,521.61c11.41,3.82,23.36,5.75,35.39,5.7v.93l.16-.94c61.47-.28,111.3-50.47,111.07-111.86-.01-42.45-24.34-81.15-62.6-99.55l-.94-.45,.12-.18-146.31-80.52c-16.73,9.57-35.3,15.49-54.49,17.36l110.21,60.55-1.74,.76c-56.5,24.42-82.56,89.98-58.26,146.53,12.87-6.23,24.82-14.2,35.53-23.67-11.23-36.99,9.65-76.09,46.64-87.32,6.48-1.97,13.21-2.98,19.98-3.02,38.66,.1,69.92,31.52,69.82,70.18-.09,35.4-26.59,65.15-61.73,69.33-12.87,13.64-27.25,25.78-42.86,36.17"/><path class="b" d="M40.73,331.93c-23.22,21.22-36.42,51.24-36.37,82.7,.27,61.48,50.46,111.32,111.89,111.1v.93l.09-.93c17.76-.05,35.25-4.38,51-12.6,4.36-2.3,8.59-4.85,12.66-7.64l143.87-87.49v-3.7c.21-17.66,3.83-35.11,10.66-51.4l-108.08,65.57,.22-1.9c.51-4.23,.76-8.5,.75-12.76-.03-56.89-43.03-104.57-99.62-110.44-.21,2.85-.32,5.82-.35,9.13-.16,11.11,.85,22.21,3,33.12,37.82,8.03,61.97,45.19,53.94,83.01-3.58,16.87-13.26,31.82-27.18,41.99l-10.21,6.25c-9.56,4.81-20.11,7.3-30.81,7.27-38.63,.13-70.08-31.03-70.3-69.66-.05-9.13,1.71-18.19,5.17-26.64-5.58-18.18-9.05-36.94-10.34-55.91"/><path class="b" d="M184.88,295.33c16.29,9.6,30.46,22.42,41.64,37.67l-.43-131.13,1.52,1.17c19.07,14.91,42.49,23.16,66.69,23.49h1.92c34.02-.1,66.1-15.85,87-42.7-11.51-8.31-24.07-15.06-37.36-20.05-13.04,13.52-31.01,21.17-49.79,21.22h-1.23c-37.66-.4-68.21-30.62-69-68.28v-3.84c1.03-37.75,31.9-67.83,69.66-67.88h1.14c22.28,.34,43.07,11.25,56,29.39,18.37,4.83,36.11,11.79,52.86,20.74-9.43-52.59-54.88-91.07-108.31-91.7h-1.8c-58.85,.3-107.34,46.26-110.81,105l-.05,1h-.23v3.51c-.01,.2-.01,.4,0,.6v2.4l.58,179.39Z"/><path class="b" d="M113.31,456.46c.53,.05,1.07,.07,1.6,.06h.16c14.48,.04,27.98-7.29,35.85-19.44-64.8-72.82-61.64-183.52,7.21-252.52l-.13-53.56c-58.54,41.76-93.71,108.88-94.73,180.78-.9,52.64,16.84,103.91,50.09,144.73"/><path class="b" d="M465.56,261.9l47.16,25.92c-13.44-112.26-107.95-197.21-221-198.66-10.29-.08-20.58,.48-30.8,1.66-4.88,6.96-7.55,15.22-7.68,23.72-.09,6.36,1.28,12.66,4,18.42,11.22-1.98,22.61-2.87,34-2.68,80.58,1.19,151.11,54.44,174.32,131.62"/><path class="b" d="M202.84,523.31c26.34,10.84,54.51,16.56,83,16.85h3.8c92.61-.4,175.6-57.3,209.36-143.54-6.98-13.32-20.5-21.93-35.52-22.62-25.36,74.57-95.24,124.84-174,125.17h-3.13c-12.37-.18-24.69-1.61-36.77-4.27l-46.74,28.41Z"/></svg>